<svg version="1.1" id="Layer_1" xmlns="http://www.w3.org/2000/svg" xmlns:xlink="http://www.w3.org/1999/xlink" x="0px" y="0px"
	 width="100%" viewBox="0 0 235 236" enable-background="new 0 0 235 236" xml:space="preserve">
<path fill="#E6E6E6" opacity="1.000000" stroke="none" 
	d="
M89.000000,237.000000 
	C84.310745,237.000000 79.621490,237.000000 74.466118,236.532745 
	C73.732498,231.538147 75.079521,225.556702 72.708382,222.923920 
	C70.654167,220.643005 64.383636,222.158737 59.976631,221.998566 
	C59.648022,221.986618 59.318775,221.992310 58.994789,221.994812 
	C58.999760,221.999863 59.009750,222.009781 59.006104,221.544632 
	C59.019802,217.010254 59.037148,212.941010 59.389156,209.036224 
	C69.469162,213.730865 79.214500,218.261078 88.962372,223.269043 
	C88.976608,228.164536 88.988304,232.582275 89.000000,237.000000 
z"/>
<path fill="#FBFBFB" opacity="1.000000" stroke="none" 
	d="
M1.000000,87.000000 
	C1.000000,82.310745 1.000000,77.621490 1.465373,72.463745 
	C13.985248,71.989059 13.985034,71.989059 13.994115,59.947044 
	C13.994858,58.961460 14.001193,57.975887 14.002840,56.995525 
	C14.000751,57.000744 13.990314,57.004925 14.453026,57.000736 
	C19.129671,57.011158 23.343601,57.025768 27.439838,57.343655 
	C22.870848,67.760773 18.419554,77.874619 13.588758,87.828354 
	C9.139504,87.445496 5.069752,87.222748 1.000000,87.000000 
z"/>
<path fill="#E2E2E2" opacity="1.000000" stroke="none" 
	d="
M236.000000,72.000000 
	C236.000000,76.689255 236.000000,81.378510 235.525208,86.530762 
	C231.801315,86.902382 228.552231,86.811020 225.174057,86.435616 
	C220.997574,76.783684 216.950165,67.415779 213.288086,57.888638 
	C217.117386,57.491203 220.561371,57.253014 224.003265,57.007328 
	C224.001175,56.999832 223.984192,56.991951 223.986191,57.459705 
	C223.989304,58.584713 223.991135,59.241966 223.991409,59.899220 
	C223.996521,72.031944 223.996490,72.031944 236.000000,72.000000 
z"/>
<path fill="#FFFFFF" opacity="1.000000" stroke="none" 
	d="
M236.000000,147.000000 
	C236.000000,151.689255 236.000000,156.378510 235.536896,161.533875 
	C224.004288,162.000000 224.004562,162.000000 223.999649,173.066971 
	C223.999054,174.381241 223.993439,175.695526 223.995636,177.004349 
	C224.001099,176.998901 224.010208,176.989792 223.549271,176.993546 
	C219.411362,176.995789 215.734406,176.994278 212.108429,176.651703 
	C216.632339,166.467865 221.105240,156.625076 226.057098,146.826294 
	C229.690704,146.913528 232.845352,146.956772 236.000000,147.000000 
z"/>
<path fill="#E6E6E6" opacity="1.000000" stroke="none" 
	d="
M149.000000,1.000000 
	C153.689255,1.000000 158.378510,1.000000 163.533875,1.461842 
	C164.000000,11.999059 164.000000,11.998625 174.083588,12.000436 
	C175.725800,12.000731 177.367996,12.006788 179.005096,12.005091 
	C179.000000,12.000000 178.989792,11.989818 178.993561,12.457666 
	C178.921265,16.439848 178.845184,19.954180 178.372437,23.333324 
	C176.700195,22.497566 175.424606,21.796995 174.075638,20.800478 
	C173.017776,19.997299 172.033264,19.490063 170.747620,18.969578 
	C169.569077,18.482084 168.691650,18.007841 167.811020,17.308922 
	C167.531631,17.145384 167.255463,17.206524 166.574768,17.276997 
	C159.981140,14.947564 153.792053,12.608798 147.945221,10.003993 
	C148.524979,6.825302 148.762497,3.912651 149.000000,1.000000 
z"/>
<path fill="#E6E6E6" opacity="1.000000" stroke="none" 
	d="
M1.000000,162.000000 
	C1.000000,157.310745 1.000000,152.621490 1.468839,147.466125 
	C6.129544,146.966599 10.321410,146.933197 14.711215,147.188232 
	C16.601622,152.652267 18.294088,157.827896 19.610065,162.963165 
	C17.513588,162.611710 15.793600,162.300613 13.605824,161.992813 
	C9.092025,161.997406 5.046012,161.998703 1.000000,162.000000 
z"/>
<path fill="#E6E6E6" opacity="1.000000" stroke="none" 
	d="
M29.000000,237.000000 
	C24.310745,237.000000 19.621489,237.000000 14.466116,236.533844 
	C14.003211,231.375244 14.006423,226.682831 14.004231,221.995789 
	C13.998828,222.001175 13.989818,222.010208 14.456950,222.006500 
	C19.619331,221.998596 24.314581,221.994415 29.006668,222.456940 
	C29.002337,227.615768 29.001169,232.307892 29.000000,237.000000 
z"/>
<path fill="#FFFFFF" opacity="1.000000" stroke="none" 
	d="
M164.000000,237.000000 
	C159.310745,237.000000 154.621490,237.000000 149.463013,236.536987 
	C149.006683,231.784256 149.019562,227.494537 149.399200,223.083496 
	C152.461441,222.183731 155.156921,221.405243 158.077698,220.968719 
	C160.191208,221.538620 162.079407,221.766571 163.978058,222.460861 
	C163.992310,227.618149 163.996155,232.309067 164.000000,237.000000 
z"/>
<path fill="#FFFFFF" opacity="1.000000" stroke="none" 
	d="
M29.466118,237.000000 
	C29.001169,232.307892 29.002337,227.615768 29.001158,222.462433 
	C28.998810,222.001221 28.989815,222.010208 29.456947,222.006485 
	C34.619446,222.005249 39.314812,222.007721 44.005711,222.005722 
	C44.001244,222.001251 43.990570,221.990616 43.993603,222.457306 
	C43.997757,227.615997 43.998878,232.307999 44.000000,237.000000 
	C39.310745,237.000000 34.621490,237.000000 29.466118,237.000000 
z"/>
<path fill="#E6E6E6" opacity="1.000000" stroke="none" 
	d="
M44.466118,237.000000 
	C43.998878,232.307999 43.997757,227.615997 44.460320,222.460815 
	C49.619255,222.001678 54.314503,222.005737 59.009750,222.009781 
	C59.009750,222.009781 58.999760,221.999863 58.998550,222.462051 
	C58.998226,227.616165 58.999111,232.308075 59.000000,237.000000 
	C54.310745,237.000000 49.621487,237.000000 44.466118,237.000000 
z"/>
<path fill="#FFFFFF" opacity="1.000000" stroke="none" 
	d="
M224.000000,237.000000 
	C219.310745,237.000000 214.621490,237.000000 209.466125,236.533844 
	C208.996719,231.375183 208.993423,226.682693 209.457336,221.993820 
	C214.619751,222.001694 219.314987,222.005951 224.005646,222.005646 
	C224.001099,222.001099 223.990143,221.990204 223.993317,222.456909 
	C223.997650,227.615753 223.998825,232.307877 224.000000,237.000000 
z"/>
<path fill="#E6E6E6" opacity="1.000000" stroke="none" 
	d="
M208.990143,221.990204 
	C208.993423,226.682693 208.996719,231.375183 209.000000,236.533844 
	C204.310745,237.000000 199.621490,237.000000 194.466125,236.533844 
	C193.996704,231.375183 193.993423,226.682693 194.457336,221.993820 
	C199.619751,222.001694 204.314987,222.005951 209.005646,222.005646 
	C209.001099,222.001099 208.990143,221.990204 208.990143,221.990204 
z"/>
<path fill="#FFFFFF" opacity="1.000000" stroke="none" 
	d="
M193.990143,221.990204 
	C193.993423,226.682693 193.996704,231.375183 194.000000,236.533844 
	C189.310745,237.000000 184.621490,237.000000 179.466125,236.533859 
	C179.003174,231.376877 179.006348,226.686050 179.004120,221.997803 
	C178.998703,222.000412 178.995071,222.009689 179.461731,222.006073 
	C184.622345,222.005051 189.316269,222.007629 194.005646,222.005646 
	C194.001099,222.001099 193.990143,221.990204 193.990143,221.990204 
z"/>
<path fill="#E6E6E6" opacity="1.000000" stroke="none" 
	d="
M179.009537,221.995209 
	C179.006348,226.686050 179.003174,231.376877 179.000000,236.533859 
	C174.310745,237.000000 169.621490,237.000000 164.466125,237.000000 
	C163.996155,232.309067 163.992310,227.618149 164.447876,222.465271 
	C169.608032,222.000626 174.308777,221.997925 179.009537,221.995209 
z"/>
<path fill="#FFFFFF" opacity="1.000000" stroke="none" 
	d="
M59.466118,237.000000 
	C58.999111,232.308075 58.998226,227.616165 58.993584,222.457001 
	C59.318775,221.992310 59.648022,221.986618 59.976631,221.998566 
	C64.383636,222.158737 70.654167,220.643005 72.708382,222.923920 
	C75.079521,225.556702 73.732498,231.538147 74.000000,236.532745 
	C69.310745,237.000000 64.621490,237.000000 59.466118,237.000000 
z"/>
<path fill="#FFFFFF" opacity="1.000000" stroke="none" 
	d="
M14.009636,221.990402 
	C14.006423,226.682831 14.003211,231.375244 14.000000,236.533844 
	C9.736837,237.000000 5.473674,237.000000 1.000000,237.000000 
	C1.000000,232.316452 1.000000,227.630890 1.463216,222.472656 
	C5.954166,221.996796 9.981901,221.993607 14.009636,221.990402 
z"/>
<path fill="#FFFFFF" opacity="1.000000" stroke="none" 
	d="
M1.000000,27.000000 
	C1.000000,22.310745 1.000000,17.621489 1.463219,12.466117 
	C5.954353,12.003394 9.982268,12.006788 14.005091,12.005091 
	C14.000000,12.000000 13.989818,11.989818 13.993538,12.456950 
	C14.001428,17.619331 14.005598,22.314579 13.545982,27.006641 
	C9.054798,27.002302 5.027399,27.001150 1.000000,27.000000 
z"/>
<path fill="#E6E6E6" opacity="1.000000" stroke="none" 
	d="
M14.004232,221.995789 
	C9.981901,221.993607 5.954166,221.996796 1.463216,222.000000 
	C1.000000,217.310745 1.000000,212.621490 1.463291,207.466125 
	C5.954316,206.996719 9.982049,206.993423 14.006173,207.457336 
	C13.998315,212.619751 13.994066,217.314987 13.989818,222.010208 
	C13.989818,222.010208 13.998828,222.001175 14.004232,221.995789 
z"/>
<path fill="#E6E6E6" opacity="1.000000" stroke="none" 
	d="
M1.000000,27.466118 
	C5.027399,27.001150 9.054798,27.002302 13.540503,27.001131 
	C13.998809,26.998808 13.989818,26.989815 13.993538,27.456947 
	C13.994778,32.619446 13.992297,37.314812 13.994363,42.005630 
	C13.998908,42.001083 14.009784,41.990150 13.545998,41.993347 
	C9.054807,41.997692 5.027403,41.998844 1.000000,42.000000 
	C1.000000,37.310745 1.000000,32.621490 1.000000,27.466118 
z"/>
<path fill="#FFFFFF" opacity="1.000000" stroke="none" 
	d="
M1.000000,162.466125 
	C5.046012,161.998703 9.092025,161.997406 13.581273,162.459702 
	C14.021443,167.618103 14.018376,172.312943 13.551405,177.005219 
	C9.058332,177.001785 5.029166,177.000885 1.000000,177.000000 
	C1.000000,172.310745 1.000000,167.621490 1.000000,162.466125 
z"/>
<path fill="#FFFFFF" opacity="1.000000" stroke="none" 
	d="
M1.000000,42.466118 
	C5.027403,41.998844 9.054807,41.997692 13.542387,42.460533 
	C13.998480,47.617992 13.994396,52.311459 13.990314,57.004925 
	C13.990314,57.004925 14.000751,57.000744 13.539117,56.999130 
	C9.051656,56.998341 5.025828,56.999172 1.000000,57.000000 
	C1.000000,52.310745 1.000000,47.621487 1.000000,42.466118 
z"/>
<path fill="#FFFFFF" opacity="1.000000" stroke="none" 
	d="
M14.009783,206.990143 
	C9.982049,206.993423 5.954316,206.996719 1.463291,207.000000 
	C1.000000,202.310745 1.000000,197.621490 1.463025,192.466125 
	C5.953960,191.996704 9.981872,191.993423 14.006173,192.457336 
	C13.998315,197.619751 13.994066,202.314987 13.994361,207.005646 
	C13.998904,207.001099 14.009783,206.990143 14.009783,206.990143 
z"/>
<path fill="#E6E6E6" opacity="1.000000" stroke="none" 
	d="
M1.000000,57.466118 
	C5.025828,56.999172 9.051656,56.998341 13.541206,56.993912 
	C14.001193,57.975887 13.994858,58.961460 13.994115,59.947044 
	C13.985034,71.989059 13.985248,71.989059 1.465373,71.997627 
	C1.000000,67.310745 1.000000,62.621487 1.000000,57.466118 
z"/>
<path fill="#E6E6E6" opacity="1.000000" stroke="none" 
	d="
M14.009783,191.990143 
	C9.981872,191.993423 5.953960,191.996704 1.463025,192.000000 
	C1.000000,187.310440 1.000000,182.620895 1.000000,177.465668 
	C5.029166,177.000885 9.058332,177.001785 13.542603,177.000900 
	C13.997707,176.999115 13.991457,176.983688 13.994589,177.451538 
	C13.995087,182.616333 13.992452,187.313263 13.994361,192.005646 
	C13.998904,192.001099 14.009783,191.990143 14.009783,191.990143 
z"/>
<path fill="#FFFFFF" opacity="1.000000" stroke="none" 
	d="
M89.466118,237.000000 
	C88.988304,232.582275 88.976608,228.164536 89.374870,223.274750 
	C94.520325,223.882523 99.255814,224.962372 103.997223,226.497589 
	C104.002098,230.301987 104.001045,233.651001 104.000000,237.000000 
	C99.310745,237.000000 94.621490,237.000000 89.466118,237.000000 
z"/>
<path fill="#E2E2E2" opacity="1.000000" stroke="none" 
	d="
M149.032440,223.204803 
	C149.019562,227.494537 149.006683,231.784256 148.996902,236.536987 
	C144.310745,237.000000 139.621490,237.000000 134.469208,236.545258 
	C133.995361,232.779678 133.984543,229.468811 134.376465,226.079590 
	C139.530273,225.069092 144.281357,224.136948 149.032440,223.204803 
z"/>
<path fill="#E2E2E2" opacity="1.000000" stroke="none" 
	d="
M1.000000,87.466118 
	C5.069752,87.222748 9.139504,87.445496 13.602047,88.252640 
	C13.172022,93.257172 12.349205,97.677315 11.039858,102.069313 
	C7.368886,102.027443 4.184443,102.013725 1.000000,102.000000 
	C1.000000,97.310745 1.000000,92.621490 1.000000,87.466118 
z"/>
<path fill="#E6E6E6" opacity="1.000000" stroke="none" 
	d="
M236.000000,192.000000 
	C236.000000,196.689255 236.000000,201.378510 235.539215,206.533875 
	C231.382339,206.996704 227.686279,206.993423 223.995651,206.995605 
	C224.001099,207.001099 224.010208,207.010208 224.006439,206.542984 
	C224.005173,201.380432 224.007690,196.685120 224.005646,191.994354 
	C224.001099,191.998901 223.990204,192.009857 224.451447,192.006714 
	C228.608444,192.002380 232.304230,192.001190 236.000000,192.000000 
z"/>
<path fill="#E6E6E6" opacity="1.000000" stroke="none" 
	d="
M223.990143,177.009796 
	C223.993439,175.695526 223.999054,174.381241 223.999649,173.066971 
	C224.004562,162.000000 224.004288,162.000000 235.536896,162.000000 
	C236.000000,166.689255 236.000000,171.378510 235.539307,176.533875 
	C231.382462,177.003265 227.686295,177.006531 223.990143,177.009796 
z"/>
<path fill="#FFFFFF" opacity="1.000000" stroke="none" 
	d="
M223.995621,177.004349 
	C227.686295,177.006531 231.382462,177.003265 235.539307,177.000000 
	C236.000000,181.689255 236.000000,186.378510 236.000000,191.533875 
	C232.304230,192.001190 228.608444,192.002380 224.455048,191.539520 
	C224.001694,186.380249 224.005951,181.685013 224.010208,176.989792 
	C224.010208,176.989792 224.001099,176.998901 223.995621,177.004349 
z"/>
<path fill="#E6E6E6" opacity="1.000000" stroke="none" 
	d="
M224.479187,237.000000 
	C223.998825,232.307877 223.997650,227.615753 224.455017,222.460510 
	C228.609024,221.998260 232.304520,221.999130 236.000000,222.000000 
	C236.000000,226.913513 236.000000,231.827042 236.000000,237.000000 
	C232.323395,237.000000 228.640884,237.000000 224.479187,237.000000 
z"/>
<path fill="#FFFFFF" opacity="1.000000" stroke="none" 
	d="
M236.000000,71.533882 
	C223.996490,72.031944 223.996521,72.031944 223.991409,59.899220 
	C223.991135,59.241966 223.989304,58.584713 224.448517,57.462646 
	C228.605881,56.998558 232.302948,56.999279 236.000000,57.000000 
	C236.000000,61.689255 236.000000,66.378510 236.000000,71.533882 
z"/>
<path fill="#FFFFFF" opacity="1.000000" stroke="none" 
	d="
M236.000000,221.533875 
	C232.304520,221.999130 228.609024,221.998260 224.451843,221.993805 
	C223.990143,221.990204 224.001099,222.001099 224.001892,221.538422 
	C223.998520,216.380554 223.994354,211.685349 223.990204,206.990143 
	C227.686279,206.993423 231.382339,206.996704 235.539215,207.000000 
	C236.000000,211.689255 236.000000,216.378510 236.000000,221.533875 
z"/>
<path fill="#E6E6E6" opacity="1.000000" stroke="none" 
	d="
M236.000000,56.533882 
	C232.302948,56.999279 228.605881,56.998558 224.446503,56.994896 
	C223.984192,56.991951 224.001175,56.999832 224.003662,56.539635 
	C224.002518,51.383114 223.998871,46.686787 224.456146,41.993515 
	C228.611374,41.997715 232.305695,41.998856 236.000000,42.000000 
	C236.000000,46.689255 236.000000,51.378513 236.000000,56.533882 
z"/>
<path fill="#FFFFFF" opacity="1.000000" stroke="none" 
	d="
M236.000000,41.533882 
	C232.305695,41.998856 228.611374,41.997715 224.458740,41.998955 
	C224.000412,42.001335 224.009689,42.004925 224.006134,41.538303 
	C223.998444,36.377846 223.994339,31.684008 224.451477,26.993317 
	C228.608475,26.997641 232.304230,26.998819 236.000000,27.000000 
	C236.000000,31.689257 236.000000,36.378513 236.000000,41.533882 
z"/>
<path fill="#E6E6E6" opacity="1.000000" stroke="none" 
	d="
M236.000000,26.533882 
	C232.304230,26.998819 228.608475,26.997641 224.456970,26.998825 
	C224.001221,27.001190 224.010208,27.010185 224.006500,26.543053 
	C224.005264,21.380552 224.007736,16.685184 224.005096,11.994909 
	C224.000000,12.000000 223.989792,12.010182 224.451431,12.006477 
	C228.608719,12.001847 232.304352,12.000924 236.000000,12.000000 
	C236.000000,16.689255 236.000000,21.378511 236.000000,26.533882 
z"/>
<path fill="#FFFFFF" opacity="1.000000" stroke="none" 
	d="
M14.513276,146.899796 
	C10.321410,146.933197 6.129544,146.966599 1.468839,147.000000 
	C1.000000,142.310745 1.000000,137.621490 1.449703,132.463043 
	C5.133984,132.008102 8.368563,132.022354 11.749357,132.449646 
	C12.768140,137.541748 13.640708,142.220764 14.513276,146.899796 
z"/>
<path fill="#FFFFFF" opacity="1.000000" stroke="none" 
	d="
M74.000000,1.000000 
	C78.689255,1.000000 83.378510,1.000000 88.536980,1.459349 
	C89.019272,5.006184 89.032349,8.093670 88.723572,11.348026 
	C86.308746,12.179797 84.215767,12.844699 81.915970,13.134781 
	C79.136848,12.511746 76.564529,12.263533 73.994751,11.556358 
	C73.998192,7.731599 73.999100,4.365799 74.000000,1.000000 
z"/>
<path fill="#E6E6E6" opacity="1.000000" stroke="none" 
	d="
M179.000000,1.000000 
	C183.689255,1.000000 188.378510,1.000000 193.533875,1.458175 
	C194.003281,5.280827 194.006561,8.645305 193.542664,12.006173 
	C188.380249,11.998315 183.685013,11.994066 178.989792,11.989818 
	C178.989792,11.989818 179.000000,12.000000 179.001358,11.545923 
	C179.001801,7.727898 179.000900,4.363949 179.000000,1.000000 
z"/>
<path fill="#E6E6E6" opacity="1.000000" stroke="none" 
	d="
M73.534332,1.000000 
	C73.999100,4.365799 73.998192,7.731599 73.999092,11.547568 
	C74.000893,11.997738 74.016296,11.991456 73.548584,11.994555 
	C68.383965,12.001693 63.687065,12.005731 58.993378,11.551169 
	C58.997723,7.728381 58.998863,4.364191 59.000000,1.000000 
	C63.689556,1.000000 68.379112,1.000000 73.534332,1.000000 
z"/>
<path fill="#FFFFFF" opacity="1.000000" stroke="none" 
	d="
M178.533875,1.000000 
	C179.000900,4.363949 179.001801,7.727898 179.006470,11.551014 
	C177.367996,12.006788 175.725800,12.000731 174.083588,12.000436 
	C164.000000,11.998625 164.000000,11.999059 164.000000,1.461842 
	C168.689255,1.000000 173.378510,1.000000 178.533875,1.000000 
z"/>
<path fill="#FFFFFF" opacity="1.000000" stroke="none" 
	d="
M58.534336,1.000000 
	C58.998863,4.364191 58.997723,7.728381 58.998886,11.545691 
	C59.001186,11.998811 59.010178,11.989818 58.543045,11.993538 
	C53.380665,12.001429 48.685413,12.005599 43.993378,11.551170 
	C43.997726,7.728381 43.998863,4.364191 44.000000,1.000000 
	C48.689556,1.000000 53.379116,1.000000 58.534336,1.000000 
z"/>
<path fill="#E6E6E6" opacity="1.000000" stroke="none" 
	d="
M43.534340,1.000000 
	C43.998863,4.364191 43.997726,7.728381 43.998886,11.545691 
	C44.001186,11.998811 44.010178,11.989818 43.543045,11.993538 
	C38.380547,11.994779 33.685181,11.992298 28.994358,11.994364 
	C28.998903,11.998909 29.009840,12.009784 29.006628,11.551184 
	C29.002277,7.728390 29.001139,4.364195 29.000000,1.000000 
	C33.689556,1.000000 38.379116,1.000000 43.534340,1.000000 
z"/>
<path fill="#FFFFFF" opacity="1.000000" stroke="none" 
	d="
M28.534334,1.000000 
	C29.001139,4.364195 29.002277,7.728390 28.539436,11.547575 
	C23.380241,11.998316 18.685030,11.994067 13.989818,11.989818 
	C13.989818,11.989818 14.000000,12.000000 14.001347,11.545923 
	C14.001795,7.727898 14.000897,4.363949 14.000000,1.000000 
	C18.689556,1.000000 23.379114,1.000000 28.534334,1.000000 
z"/>
<path fill="#FFFFFF" opacity="1.000000" stroke="none" 
	d="
M194.009857,12.009783 
	C194.006561,8.645305 194.003281,5.280827 194.000000,1.458175 
	C198.689560,1.000000 203.379105,1.000000 208.534332,1.458174 
	C208.996704,5.280822 208.993423,8.645294 208.995667,12.004288 
	C209.001205,11.998809 209.010208,11.989818 208.543076,11.993538 
	C203.380554,11.994778 198.685181,11.992298 193.994354,11.994361 
	C193.998901,11.998904 194.009857,12.009783 194.009857,12.009783 
z"/>
<path fill="#E6E6E6" opacity="1.000000" stroke="none" 
	d="
M208.990143,12.009768 
	C208.993423,8.645294 208.996704,5.280822 209.000000,1.458174 
	C213.689560,1.000000 218.379105,1.000000 223.534332,1.458153 
	C223.996597,5.280932 223.993195,8.645557 223.989792,12.010182 
	C223.989792,12.010182 224.000000,12.000000 223.537872,11.998672 
	C218.380554,12.001485 213.685364,12.005626 208.990143,12.009768 
z"/>
<path fill="#E2E2E2" opacity="1.000000" stroke="none" 
	d="
M11.603142,132.036591 
	C8.368563,132.022354 5.133984,132.008102 1.449703,131.996918 
	C1.000000,127.310745 1.000000,122.621490 1.447545,117.469193 
	C4.854091,116.992928 7.813092,116.979713 10.859652,117.413612 
	C11.165854,122.586021 11.384499,127.311302 11.603142,132.036591 
z"/>
<path fill="#FFFFFF" opacity="1.000000" stroke="none" 
	d="
M133.973755,226.157959 
	C133.984543,229.468811 133.995361,232.779678 134.003082,236.545258 
	C129.310745,237.000000 124.621490,237.000000 119.463043,236.550446 
	C119.004684,233.119904 119.015511,230.138916 119.479996,227.086975 
	C124.613686,226.729996 129.293716,226.443985 133.973755,226.157959 
z"/>
<path fill="#E2E2E2" opacity="1.000000" stroke="none" 
	d="
M119.026337,227.157959 
	C119.015511,230.138916 119.004684,233.119904 118.996933,236.550446 
	C114.310745,237.000000 109.621490,237.000000 104.466118,237.000000 
	C104.001045,233.651001 104.002098,230.301987 104.395187,226.464996 
	C109.533592,226.370636 114.279961,226.764297 119.026337,227.157959 
z"/>
<path fill="#FFFFFF" opacity="1.000000" stroke="none" 
	d="
M10.772093,116.966492 
	C7.813092,116.979713 4.854091,116.992928 1.447545,117.003075 
	C1.000000,112.310745 1.000000,107.621490 1.000000,102.466118 
	C4.184443,102.013725 7.368886,102.027443 11.004072,102.530083 
	C11.227241,107.668159 10.999667,112.317329 10.772093,116.966492 
z"/>
<path fill="#E6E6E6" opacity="1.000000" stroke="none" 
	d="
M13.523338,1.000000 
	C14.000897,4.363949 14.001795,7.727898 14.006437,11.551014 
	C9.982268,12.006788 5.954353,12.003394 1.463219,12.000000 
	C1.000000,8.404064 1.000000,4.808129 1.000000,1.000000 
	C5.014047,1.000000 9.030362,1.000000 13.523338,1.000000 
z"/>
<path fill="#E2E2E2" opacity="1.000000" stroke="none" 
	d="
M236.000000,146.533875 
	C232.845352,146.956772 229.690704,146.913528 226.148865,146.426422 
	C226.767578,141.338226 227.773483,136.693878 229.231888,132.049957 
	C231.789597,132.033585 233.894791,132.016785 236.000000,132.000000 
	C236.000000,136.689255 236.000000,141.378510 236.000000,146.533875 
z"/>
<path fill="#FFFFFF" opacity="1.000000" stroke="none" 
	d="
M225.303131,86.719650 
	C228.552231,86.811020 231.801315,86.902382 235.525208,86.996872 
	C236.000000,91.689255 236.000000,96.378510 235.589142,101.533875 
	C233.049301,102.682442 230.920334,103.364891 228.692841,103.653542 
	C227.497269,97.746376 226.400208,92.233009 225.303131,86.719650 
z"/>
<path fill="#E2E2E2" opacity="1.000000" stroke="none" 
	d="
M89.045418,11.181155 
	C89.032349,8.093670 89.019272,5.006184 89.003098,1.459349 
	C93.689255,1.000000 98.378510,1.000000 103.530807,1.428475 
	C104.004631,3.851975 104.015404,5.847002 103.633766,7.922501 
	C98.509369,9.062368 93.777397,10.121761 89.045418,11.181155 
z"/>
<path fill="#FFFFFF" opacity="1.000000" stroke="none" 
	d="
M224.451431,12.006477 
	C223.993195,8.645557 223.996597,5.280932 224.000000,1.458153 
	C227.917175,1.000000 231.834335,1.000000 236.000000,1.000000 
	C236.000000,4.342351 236.000000,7.688220 236.000000,11.517044 
	C232.304352,12.000924 228.608719,12.001847 224.451431,12.006477 
z"/>
<path fill="#FFFFFF" opacity="1.000000" stroke="none" 
	d="
M148.533875,1.000000 
	C148.762497,3.912651 148.524979,6.825302 147.549744,10.056465 
	C142.550156,9.530667 138.288315,8.686359 134.014633,7.415397 
	C134.001877,4.992495 134.000931,2.996248 134.000000,1.000000 
	C138.689255,1.000000 143.378510,1.000000 148.533875,1.000000 
z"/>
<path fill="#FFFFFF" opacity="1.000000" stroke="none" 
	d="
M236.000000,131.533875 
	C233.894791,132.016785 231.789597,132.033585 229.140930,131.584976 
	C228.786575,126.420837 228.975708,121.722107 229.591095,117.015678 
	C232.011581,117.005318 234.005783,117.002655 236.000000,117.000000 
	C236.000000,121.689255 236.000000,126.378510 236.000000,131.533875 
z"/>
<path fill="#E6E6E6" opacity="1.000000" stroke="none" 
	d="
M236.000000,116.533882 
	C234.005783,117.002655 232.011581,117.005318 229.518799,116.556190 
	C228.943924,112.085381 228.867630,108.066368 228.791351,104.047348 
	C230.920334,103.364891 233.049301,102.682442 235.589142,102.000000 
	C236.000000,106.689255 236.000000,111.378510 236.000000,116.533882 
z"/>
<path fill="#E2E2E2" opacity="1.000000" stroke="none" 
	d="
M133.533875,1.000000 
	C134.000931,2.996248 134.001877,4.992495 133.570038,7.483410 
	C128.416077,7.599398 123.694878,7.220718 118.985382,6.425347 
	C118.998070,4.339104 118.999031,2.669552 119.000000,1.000000 
	C123.689255,1.000000 128.378510,1.000000 133.533875,1.000000 
z"/>
<path fill="#FFFFFF" opacity="1.000000" stroke="none" 
	d="
M118.533882,1.000000 
	C118.999031,2.669552 118.998070,4.339104 118.540657,6.496323 
	C113.398201,7.270001 108.712196,7.556014 104.026184,7.842027 
	C104.015404,5.847002 104.004631,3.851975 103.996925,1.428475 
	C108.689255,1.000000 113.378510,1.000000 118.533882,1.000000 
z"/>
<path fill="#332C29" opacity="1.000000" stroke="none" 
	d="
M103.633766,7.922501 
	C108.712196,7.556014 113.398201,7.270001 118.528946,6.913013 
	C123.694878,7.220718 128.416077,7.599398 133.581879,7.910064 
	C138.288315,8.686359 142.550156,9.530667 147.207489,10.322504 
	C153.792053,12.608798 159.981140,14.947564 166.766815,17.395830 
	C167.363403,17.505329 167.814240,17.533594 167.814240,17.533596 
	C168.691650,18.007841 169.569077,18.482084 170.893127,19.268061 
	C172.276184,20.085337 173.212585,20.590881 174.149002,21.096424 
	C175.424606,21.796995 176.700195,22.497566 178.533569,23.608395 
	C180.904663,25.091520 182.717957,26.164389 184.695587,27.560436 
	C188.251465,30.854137 191.643021,33.824657 195.342239,36.929337 
	C197.418335,38.713814 199.186768,40.364140 201.041016,42.356133 
	C205.052139,47.814499 208.977432,52.931190 212.902740,58.047882 
	C216.950165,67.415779 220.997574,76.783684 225.174072,86.435616 
	C226.400208,92.233009 227.497269,97.746376 228.692841,103.653549 
	C228.867630,108.066368 228.943924,112.085381 229.092529,116.563889 
	C228.975708,121.722107 228.786575,126.420837 228.688416,131.584549 
	C227.773483,136.693878 226.767578,141.338226 225.669922,146.382446 
	C221.105240,156.625076 216.632339,166.467865 211.849213,176.879654 
	C209.983353,179.280869 208.427719,181.113083 206.557404,183.103348 
	C204.451965,186.161880 202.661194,189.062363 200.563751,192.095581 
	C192.798126,198.462021 185.339188,204.695724 177.540771,211.022919 
	C170.751648,214.286499 164.302032,217.456635 157.852402,220.626770 
	C155.156921,221.405243 152.461441,222.183731 149.399200,223.083496 
	C144.281357,224.136948 139.530273,225.069092 134.376465,226.079590 
	C129.293716,226.443985 124.613686,226.729996 119.479996,227.086990 
	C114.279961,226.764297 109.533592,226.370636 104.389267,226.009598 
	C99.255814,224.962372 94.520325,223.882523 89.372337,222.796997 
	C79.214500,218.261078 69.469162,213.730865 59.261070,208.746094 
	C58.130608,207.873596 57.462894,207.455643 56.797897,206.692902 
	C53.041027,203.832703 49.281437,201.317307 45.330135,198.513351 
	C42.492828,195.640808 39.847229,193.056839 37.151749,190.152435 
	C35.167778,187.458618 33.233685,185.085205 31.115831,182.395599 
	C29.760471,180.319443 28.588875,178.559464 27.309525,176.453384 
	C24.796700,171.739349 22.391628,167.371429 19.986557,163.003510 
	C18.294088,157.827896 16.601622,152.652267 14.711215,147.188232 
	C13.640708,142.220764 12.768140,137.541748 11.749357,132.449646 
	C11.384499,127.311302 11.165854,122.586021 10.859652,117.413612 
	C10.999667,112.317329 11.227241,107.668159 11.490602,102.558228 
	C12.349205,97.677315 13.172022,93.257172 13.981550,88.412750 
	C18.419554,77.874619 22.870848,67.760773 27.634752,57.118767 
	C28.331352,55.903496 28.715340,55.216393 29.393560,54.318047 
	C32.429245,50.342999 35.170696,46.579197 38.238934,42.715958 
	C41.291359,39.740959 44.017002,36.865395 47.037243,33.804344 
	C49.957119,31.848127 52.582394,30.077394 55.492107,28.103031 
	C57.210064,26.614389 58.643578,25.329376 60.427277,23.990780 
	C65.261810,21.452389 69.746147,18.967579 74.588211,16.376953 
	C77.338226,15.350625 79.730507,14.430113 82.122787,13.509601 
	C84.215767,12.844699 86.308746,12.179797 88.723572,11.348026 
	C93.777397,10.121761 98.509369,9.062368 103.633766,7.922501 
M99.061302,147.890854 
	C99.119019,152.605286 99.176735,157.319717 99.115173,162.954910 
	C99.154930,167.625443 99.194687,172.295975 99.062416,177.836121 
	C99.025574,180.316132 99.443893,182.910156 98.857117,185.252396 
	C97.635674,190.127975 99.285156,191.764664 104.943558,190.983566 
	C109.621765,190.948776 114.299965,190.913986 119.864174,191.047195 
	C130.371445,191.118347 130.377365,191.118240 130.195084,180.406250 
	C130.175690,179.266724 130.036163,178.129257 129.995117,176.060699 
	C129.980865,171.376816 129.966629,166.692947 130.208206,161.096344 
	C130.122925,156.394501 130.037643,151.692673 129.995117,146.060760 
	C129.944122,141.382935 129.893127,136.705093 130.109467,131.131226 
	C130.109467,128.128052 130.109467,125.124870 130.109467,122.183517 
	C131.757370,122.010818 132.896347,121.891457 134.871613,121.876343 
	C139.518112,121.418266 144.164627,120.960197 148.838058,120.499466 
	C148.997528,119.005554 149.137329,117.695854 149.822891,115.815750 
	C149.951096,114.242676 150.079300,112.669594 150.403656,110.163628 
	C150.403656,105.006760 150.403656,99.849884 150.403656,94.204811 
	C144.182724,94.204811 139.108170,94.204811 133.179535,94.013672 
	C128.379227,93.093040 131.587555,89.260139 130.894119,86.349365 
	C130.861145,85.910667 130.828171,85.471970 130.957703,84.499786 
	C130.903534,84.321960 130.849365,84.144135 130.916809,83.238281 
	C130.876266,82.503593 130.835739,81.768913 130.983078,80.278366 
	C130.920456,79.507362 130.857819,78.736351 130.913467,77.278770 
	C131.944244,76.567726 132.975021,75.856674 134.879501,75.375526 
	C139.835236,74.630554 144.790985,73.885582 149.795502,73.133270 
	C149.795502,67.503212 149.795502,62.263588 149.975082,56.120132 
	C149.975082,53.515221 149.975082,50.910309 149.975082,47.413776 
	C139.271042,48.007652 129.137451,48.569878 118.264725,49.132557 
	C114.451050,51.269386 110.637375,53.406219 106.204353,55.893188 
	C104.966545,57.887566 103.728737,59.881947 102.043709,62.394825 
	C101.220154,65.525841 100.396599,68.656860 99.149483,72.525269 
	C99.142014,77.343735 99.134537,82.162209 98.961670,87.829720 
	C99.725876,92.566422 97.639786,94.295723 92.967972,94.094017 
	C90.506798,93.987755 88.003723,94.851952 85.931999,95.207237 
	C85.931999,104.123665 85.931999,112.442970 85.931999,120.707642 
	C98.589653,121.639847 98.589653,121.639847 99.115128,132.951950 
	C99.154900,137.624191 99.194672,142.296417 99.061302,147.890854 
z"/>
<path fill="#FFFFFF" opacity="1.000000" stroke="none" 
	d="
M56.795181,207.037689 
	C57.462894,207.455643 58.130608,207.873596 58.926407,208.581665 
	C59.037148,212.941010 59.019802,217.010254 59.006104,221.544632 
	C54.314503,222.005737 49.619255,222.001678 44.457291,221.994125 
	C43.990570,221.990616 44.001244,222.001251 44.001953,221.538452 
	C44.005074,216.380493 44.007488,211.685318 44.004501,206.995544 
	C43.999100,207.000931 43.990417,207.009598 44.452492,207.002991 
	C48.874771,207.010162 52.834980,207.023926 56.795181,207.037689 
z"/>
<path fill="#E6E6E6" opacity="1.000000" stroke="none" 
	d="
M29.099327,54.529289 
	C28.715340,55.216393 28.331352,55.903496 27.752449,56.815491 
	C23.343601,57.025768 19.129671,57.011158 14.453026,57.000736 
	C13.994396,52.311459 13.998480,47.617992 14.006174,42.457336 
	C14.009784,41.990150 13.998908,42.001083 14.461658,42.001869 
	C19.621496,42.004471 24.318584,42.006287 29.007191,42.004025 
	C28.998707,41.999950 28.994661,41.985176 28.994217,42.453835 
	C29.028955,46.791428 29.064142,50.660358 29.099327,54.529289 
z"/>
<path fill="#FBFBFB" opacity="1.000000" stroke="none" 
	d="
M213.288086,57.888634 
	C208.977432,52.931190 205.052139,47.814499 201.487366,42.349442 
	C204.221146,42.002502 206.594391,42.003922 209.435791,42.001266 
	C214.605865,41.999767 219.307770,42.002346 224.009689,42.004925 
	C224.009689,42.004925 224.000412,42.001335 223.997803,41.995895 
	C223.998871,46.686787 224.002518,51.383114 224.005753,56.547134 
	C220.561371,57.253014 217.117386,57.491203 213.288086,57.888634 
z"/>
<path fill="#E6E6E6" opacity="1.000000" stroke="none" 
	d="
M206.872086,182.945297 
	C208.427719,181.113083 209.983353,179.280869 211.798218,177.220718 
	C215.734406,176.994278 219.411362,176.995789 223.549271,176.993546 
	C224.005951,181.685013 224.001694,186.380249 223.993820,191.542664 
	C223.990204,192.009857 224.001099,191.998901 223.538422,191.998123 
	C218.380432,191.994827 213.685120,191.992325 208.994904,191.994904 
	C209.000000,192.000000 209.010208,192.010208 209.006531,191.563065 
	C208.089767,188.445267 211.128250,184.744125 206.872086,182.945297 
z"/>
<path fill="#FFFFFF" opacity="1.000000" stroke="none" 
	d="
M184.531265,27.237259 
	C182.717957,26.164389 180.904663,25.091520 178.930222,23.743584 
	C178.845184,19.954180 178.921265,16.439848 178.993561,12.457666 
	C183.685013,11.994066 188.380249,11.998315 193.542664,12.006173 
	C194.009857,12.009783 193.998901,11.998904 193.998108,12.461626 
	C193.994919,17.619516 193.992508,22.314682 193.995453,27.004515 
	C194.000824,26.999180 194.009598,26.990414 193.542801,26.997055 
	C190.227753,27.081551 187.379517,27.159407 184.531265,27.237259 
z"/>
<path fill="#E2E2E2" opacity="1.000000" stroke="none" 
	d="
M174.075638,20.800480 
	C173.212585,20.590881 172.276184,20.085337 171.194275,19.281311 
	C172.033264,19.490063 173.017776,19.997299 174.075638,20.800480 
z"/>
<path fill="#E2E2E2" opacity="1.000000" stroke="none" 
	d="
M167.811020,17.308918 
	C167.814240,17.533594 167.363403,17.505329 167.171356,17.386496 
	C167.255463,17.206524 167.531631,17.145384 167.811020,17.308918 
z"/>
<path fill="#E2E2E2" opacity="1.000000" stroke="none" 
	d="
M19.610065,162.963165 
	C22.391628,167.371429 24.796700,171.739349 26.819607,176.508728 
	C22.288780,176.934677 18.140120,176.959183 13.991457,176.983688 
	C13.991457,176.983688 13.997707,176.999115 14.006509,177.003448 
	C14.018376,172.312943 14.021443,167.618103 14.049061,162.456390 
	C15.793600,162.300613 17.513588,162.611710 19.610065,162.963165 
z"/>
<path fill="#FFFFFF" opacity="1.000000" stroke="none" 
	d="
M14.456950,222.006500 
	C13.994066,217.314987 13.998315,212.619751 14.006173,207.457336 
	C14.009783,206.990143 13.998904,207.001099 14.461590,207.001892 
	C19.619463,206.998520 24.314651,206.994354 29.006676,207.456940 
	C28.998945,212.619171 28.994381,217.314697 28.989815,222.010208 
	C28.989815,222.010208 28.998810,222.001221 29.004320,221.995728 
	C24.314581,221.994415 19.619331,221.998596 14.456950,222.006500 
z"/>
<path fill="#FBFBFB" opacity="1.000000" stroke="none" 
	d="
M158.077698,220.968719 
	C164.302032,217.456635 170.751648,214.286499 177.859619,211.295364 
	C178.677002,214.986130 178.836044,218.497910 178.995087,222.009689 
	C178.995071,222.009689 178.998703,222.000412 179.004120,221.997803 
	C174.308777,221.997925 169.608032,222.000626 164.437439,221.998932 
	C162.079407,221.766571 160.191208,221.538620 158.077698,220.968719 
z"/>
<path fill="#E6E6E6" opacity="1.000000" stroke="none" 
	d="
M29.456947,222.006485 
	C28.994381,217.314697 28.998945,212.619171 29.001205,207.462372 
	C28.998901,207.001099 28.989815,207.010208 29.456947,207.006500 
	C34.619354,206.998566 39.314625,206.994354 44.009903,206.990143 
	C44.007488,211.685318 44.005074,216.380493 44.006420,221.542938 
	C39.314812,222.007721 34.619446,222.005249 29.456947,222.006485 
z"/>
<path fill="#E6E6E6" opacity="1.000000" stroke="none" 
	d="
M223.995651,206.995621 
	C223.994354,211.685349 223.998520,216.380554 224.006439,221.542984 
	C219.314987,222.005951 214.619751,222.001694 209.457336,221.993820 
	C208.990143,221.990204 209.001099,222.001099 209.001877,221.538391 
	C209.005051,216.380508 209.007446,211.685364 209.004364,206.995651 
	C208.998901,207.001099 208.989792,207.010208 209.456924,207.006485 
	C214.619446,207.005249 219.314819,207.007721 224.010208,207.010193 
	C224.010208,207.010208 224.001099,207.001099 223.995651,206.995621 
z"/>
<path fill="#FFFFFF" opacity="1.000000" stroke="none" 
	d="
M209.009857,206.990204 
	C209.007446,211.685364 209.005051,216.380508 209.006439,221.542938 
	C204.314987,222.005951 199.619751,222.001694 194.457336,221.993820 
	C193.990143,221.990204 194.001099,222.001099 194.001892,221.537292 
	C194.268295,216.544464 192.918518,210.562744 195.289108,207.926682 
	C197.340927,205.645065 203.614960,207.159805 208.022781,206.998718 
	C208.351471,206.986694 208.680817,206.992630 209.009857,206.990204 
z"/>
<path fill="#E6E6E6" opacity="1.000000" stroke="none" 
	d="
M209.004379,206.995651 
	C208.680817,206.992630 208.351471,206.986694 208.022781,206.998718 
	C203.614960,207.159805 197.340927,205.645065 195.289108,207.926682 
	C192.918518,210.562744 194.268295,216.544464 194.006439,221.541855 
	C189.316269,222.007629 184.622345,222.005051 179.461746,222.006073 
	C178.836044,218.497910 178.677002,214.986130 178.199127,211.201904 
	C185.339188,204.695724 192.798126,198.462021 201.016373,192.115463 
	C204.187195,192.005142 206.598694,192.007675 209.010208,192.010193 
	C209.010208,192.010208 209.000000,192.000000 208.998657,192.462128 
	C208.994812,197.619568 208.992294,202.314880 208.989792,207.010208 
	C208.989792,207.010208 208.998901,207.001099 209.004379,206.995651 
z"/>
<path fill="#E6E6E6" opacity="1.000000" stroke="none" 
	d="
M13.993538,12.456950 
	C18.685030,11.994067 23.380241,11.998316 28.542648,12.006174 
	C29.009840,12.009784 28.998903,11.998909 28.998123,12.461593 
	C29.001507,17.619480 29.005669,22.314686 28.543095,27.006706 
	C23.380844,26.998955 18.685331,26.994385 13.989818,26.989815 
	C13.989818,26.989815 13.998809,26.998808 14.004289,27.004318 
	C14.005598,22.314579 14.001428,17.619331 13.993538,12.456950 
z"/>
<path fill="#FFFFFF" opacity="1.000000" stroke="none" 
	d="
M13.993538,27.456947 
	C18.685331,26.994385 23.380844,26.998955 28.537720,27.001305 
	C28.999081,26.999086 28.990414,26.990414 28.997038,27.457470 
	C29.007666,32.619053 29.011669,37.313576 29.015673,42.008099 
	C24.318584,42.006287 19.621496,42.004471 14.457113,42.006416 
	C13.992297,37.314812 13.994778,32.619446 13.993538,27.456947 
z"/>
<path fill="#E6E6E6" opacity="1.000000" stroke="none" 
	d="
M29.004372,206.995651 
	C24.314651,206.994354 19.619463,206.998520 14.457047,207.006439 
	C13.994066,202.314987 13.998315,197.619751 14.006173,192.457336 
	C14.009783,191.990143 13.998904,192.001099 14.461626,192.001892 
	C19.619516,191.998489 24.314682,191.994293 29.006214,192.457291 
	C28.998323,197.619720 28.994070,202.314972 28.989815,207.010208 
	C28.989815,207.010208 28.998901,207.001099 29.004372,206.995651 
z"/>
<path fill="#FFFFFF" opacity="1.000000" stroke="none" 
	d="
M29.009850,191.990097 
	C24.314682,191.994293 19.619516,191.998489 14.457083,192.006439 
	C13.992452,187.313263 13.995087,182.616333 13.994589,177.451538 
	C18.140120,176.959183 22.288780,176.934677 26.927361,176.854843 
	C28.588875,178.559464 29.760471,180.319443 30.646313,182.532135 
	C29.903841,185.993103 29.447128,189.001343 28.994797,192.005219 
	C28.999180,192.000824 29.009850,191.990097 29.009850,191.990097 
z"/>
<path fill="#FFFFFF" opacity="1.000000" stroke="none" 
	d="
M209.456924,207.006485 
	C208.992294,202.314880 208.994812,197.619568 208.993561,192.457031 
	C213.685120,191.992325 218.380432,191.994827 223.542984,191.993561 
	C224.007690,196.685120 224.005173,201.380432 224.006439,206.542969 
	C219.314819,207.007721 214.619446,207.005249 209.456924,207.006485 
z"/>
<path fill="#E6E6E6" opacity="1.000000" stroke="none" 
	d="
M224.006134,41.538303 
	C219.307770,42.002346 214.605865,41.999767 209.447952,41.534630 
	C208.998047,36.377987 209.004135,31.683901 209.005646,26.994358 
	C209.001099,26.998901 208.990204,27.009840 209.456940,27.006676 
	C214.619171,27.005735 219.314697,27.007959 224.010208,27.010185 
	C224.010208,27.010185 224.001221,27.001190 223.995728,26.995680 
	C223.994339,31.684008 223.998444,36.377846 224.006134,41.538303 
z"/>
<path fill="#FFFFFF" opacity="1.000000" stroke="none" 
	d="
M224.006500,26.543053 
	C219.314697,27.007959 214.619171,27.005735 209.460541,26.539482 
	C209.001678,21.380241 209.005936,16.685030 209.010193,11.989818 
	C209.010208,11.989818 209.001205,11.998809 208.995682,12.004288 
	C213.685364,12.005626 218.380554,12.001485 223.542984,11.993581 
	C224.007736,16.685184 224.005264,21.380552 224.006500,26.543053 
z"/>
<path fill="#E2E2E2" opacity="1.000000" stroke="none" 
	d="
M81.915970,13.134781 
	C79.730507,14.430113 77.338226,15.350625 74.539810,15.928875 
	C74.094543,14.388227 74.055420,13.189842 74.016296,11.991456 
	C74.016296,11.991456 74.000893,11.997738 73.996552,12.006529 
	C76.564529,12.263533 79.136848,12.511746 81.915970,13.134781 
z"/>
<path fill="#FFFFFF" opacity="1.000000" stroke="none" 
	d="
M73.548576,11.994555 
	C74.055420,13.189842 74.094543,14.388227 74.182076,16.034691 
	C69.746147,18.967579 65.261810,21.452389 60.114464,23.712683 
	C59.304367,19.655386 59.157272,15.822601 59.010178,11.989818 
	C59.010178,11.989818 59.001186,11.998811 58.995674,12.004290 
	C63.687065,12.005731 68.383965,12.001693 73.548576,11.994555 
z"/>
<path fill="#E6E6E6" opacity="1.000000" stroke="none" 
	d="
M58.543045,11.993538 
	C59.157272,15.822601 59.304367,19.655386 59.764275,23.766266 
	C58.643578,25.329376 57.210064,26.614389 55.207382,27.773869 
	C51.086712,27.429375 47.535206,27.210415 43.991512,26.994644 
	C43.999325,26.997831 44.007828,27.015341 44.005310,26.548256 
	C44.005257,21.384052 44.007717,16.686935 44.010178,11.989818 
	C44.010178,11.989818 44.001186,11.998811 43.995674,12.004290 
	C48.685413,12.005599 53.380665,12.001429 58.543045,11.993538 
z"/>
<path fill="#FFFFFF" opacity="1.000000" stroke="none" 
	d="
M43.543045,11.993538 
	C44.007717,16.686935 44.005257,21.384052 43.538338,26.545734 
	C38.379391,27.003672 33.684902,26.997042 28.990414,26.990414 
	C28.990414,26.990414 28.999081,26.999086 29.004456,27.004488 
	C29.005669,22.314686 29.001507,17.619480 28.993580,12.457047 
	C33.685181,11.992298 38.380547,11.994779 43.543045,11.993538 
z"/>
<path fill="#E6E6E6" opacity="1.000000" stroke="none" 
	d="
M208.543060,11.993538 
	C209.005936,16.685030 209.001678,21.380241 208.993805,26.542648 
	C208.990204,27.009840 209.001099,26.998901 208.538422,26.998123 
	C203.380539,27.001513 198.685318,27.005680 193.990097,27.009850 
	C193.992508,22.314682 193.994919,17.619516 193.993561,12.457083 
	C198.685181,11.992298 203.380554,11.994778 208.543060,11.993538 
z"/>
<path fill="#E6E6E6" opacity="1.000000" stroke="none" 
	d="
M119.003860,49.132103 
	C129.137451,48.569878 139.271042,48.007652 149.975082,47.413776 
	C149.975082,50.910309 149.975082,53.515221 149.431030,56.566372 
	C145.223221,57.006828 141.550201,57.159935 137.898529,56.946972 
	C134.754333,56.763603 133.803528,58.082867 133.951996,61.043148 
	C134.135284,64.697922 134.001984,68.368561 133.538849,72.020210 
	C128.378189,72.008636 123.684181,72.009201 118.993340,71.542671 
	C119.001183,66.359177 119.005859,61.642780 119.003403,56.495907 
	C118.998795,53.754322 119.001328,51.443214 119.003860,49.132103 
z"/>
<path fill="#E6E6E6" opacity="1.000000" stroke="none" 
	d="
M99.234451,132.030685 
	C98.589653,121.639847 98.589653,121.639847 85.931999,120.707642 
	C85.931999,112.442970 85.931999,104.123665 85.931999,95.207237 
	C88.003723,94.851952 90.506798,93.987755 92.967972,94.094017 
	C97.639786,94.295723 99.725876,92.566422 99.450989,87.418213 
	C101.296799,87.001183 102.653297,86.995667 104.006172,87.457344 
	C104.004959,92.619637 104.007362,97.314728 103.541908,102.006660 
	C99.434654,102.005280 95.765907,101.749077 92.172783,102.157753 
	C91.015327,102.289406 89.030479,104.353294 89.184113,105.221985 
	C89.873383,109.119408 86.644722,113.758141 91.143608,116.891808 
	C91.709053,117.285660 92.761177,116.996223 93.587830,116.996986 
	C97.061813,117.000168 100.535805,116.993324 104.006180,117.457344 
	C104.004967,122.619637 104.007362,127.314743 103.611633,132.006790 
	C101.887146,132.012711 100.560799,132.021698 99.234451,132.030685 
z"/>
<path fill="#FBFBFB" opacity="1.000000" stroke="none" 
	d="
M134.005493,72.032349 
	C134.001984,68.368561 134.135284,64.697922 133.951996,61.043148 
	C133.803528,58.082867 134.754333,56.763603 137.898529,56.946972 
	C141.550201,57.159935 145.223221,57.006828 149.341248,57.018288 
	C149.795502,62.263588 149.795502,67.503212 149.795502,73.133270 
	C144.790985,73.885582 139.835236,74.630554 134.440399,74.870987 
	C134.002701,73.588417 134.004105,72.810387 134.005493,72.032349 
z"/>
<path fill="#E6E6E6" opacity="1.000000" stroke="none" 
	d="
M150.207489,111.096519 
	C150.079300,112.669594 149.951096,114.242676 149.325409,115.870461 
	C143.879852,116.280602 138.931778,116.636024 133.992462,116.995117 
	C134.001221,116.998772 134.008545,117.016304 134.005463,116.548576 
	C134.004425,111.381798 134.006485,106.682747 134.004883,101.992462 
	C134.001221,102.001228 133.983688,102.008545 134.452499,102.005432 
	C137.221054,102.001556 139.544342,102.211205 141.815750,101.957123 
	C146.873444,101.391373 150.259857,102.324356 149.087814,108.586685 
	C148.949173,109.327499 149.809998,110.255363 150.207489,111.096519 
z"/>
<path fill="#E2E2E2" opacity="1.000000" stroke="none" 
	d="
M28.997038,27.457470 
	C33.684902,26.997042 38.379391,27.003672 43.540855,27.012821 
	C44.007828,27.015341 43.999325,26.997831 43.994308,27.422031 
	C44.001812,29.614111 43.837482,31.414314 44.150543,33.127270 
	C44.229317,33.558300 45.837376,33.709843 46.742641,33.989826 
	C44.017002,36.865395 41.291359,39.740959 37.945755,42.452225 
	C34.548748,42.187004 31.771706,42.086090 28.994661,41.985176 
	C28.994661,41.985176 28.998707,41.999950 29.007191,42.004025 
	C29.011669,37.313576 29.007666,32.619053 28.997038,27.457470 
z"/>
<path fill="#FFFFFF" opacity="1.000000" stroke="none" 
	d="
M119.010544,56.926380 
	C119.005859,61.642780 119.001183,66.359177 118.998848,71.537186 
	C119.001190,71.998802 119.010178,71.989822 118.542953,71.993584 
	C113.380424,71.994843 108.685120,71.992332 103.994781,71.994781 
	C103.999748,71.999748 104.009583,72.009590 104.002998,71.553574 
	C103.494591,68.023804 102.992760,64.950066 102.490929,61.876328 
	C103.728737,59.881947 104.966545,57.887566 106.753403,56.088696 
	C111.205147,56.498260 115.107841,56.712318 119.010544,56.926380 
z"/>
<path fill="#FFFFFF" opacity="1.000000" stroke="none" 
	d="
M29.456947,207.006500 
	C28.994070,202.314972 28.998323,197.619720 29.006214,192.457291 
	C29.009850,191.990097 28.999180,192.000824 29.442863,191.998611 
	C32.324905,191.488556 34.763264,190.980713 37.201630,190.472870 
	C39.847229,193.056839 42.492828,195.640808 44.959885,198.736572 
	C44.517700,201.835419 44.254059,204.422516 43.990417,207.009598 
	C43.990417,207.009598 43.999100,207.000931 44.004501,206.995544 
	C39.314625,206.994354 34.619354,206.998566 29.456947,207.006500 
z"/>
<path fill="#FFFFFF" opacity="1.000000" stroke="none" 
	d="
M118.978165,190.879196 
	C114.299965,190.913986 109.621765,190.948776 104.476295,190.455475 
	C104.009415,185.614838 104.009796,181.302322 104.005089,176.994904 
	C104.000000,177.000000 103.989822,177.010208 104.456955,177.006500 
	C109.619453,177.005249 114.314812,177.007736 119.005226,177.005219 
	C119.000275,177.000229 118.990417,176.990402 118.997025,177.455139 
	C118.995148,182.239655 118.986656,186.559418 118.978165,190.879196 
z"/>
<path fill="#E2E2E2" opacity="1.000000" stroke="none" 
	d="
M130.610596,86.949181 
	C131.587555,89.260139 128.379227,93.093040 133.599365,94.539986 
	C134.007370,97.380379 133.995529,99.694466 133.983688,102.008545 
	C133.983688,102.008545 134.001221,102.001228 133.537842,101.995346 
	C128.379883,101.996056 123.685318,102.002647 118.996841,101.542572 
	C118.998863,96.380844 118.994797,91.685783 119.446358,86.996765 
	C123.471527,86.984932 127.041061,86.967056 130.610596,86.949181 
z"/>
<path fill="#FFFFFF" opacity="1.000000" stroke="none" 
	d="
M193.995453,27.004515 
	C198.685318,27.005680 203.380539,27.001513 208.542984,26.993580 
	C209.004135,31.683901 208.998047,36.377987 208.979797,41.538708 
	C206.594391,42.003922 204.221146,42.002502 201.401550,42.007771 
	C199.186768,40.364140 197.418335,38.713814 195.276245,36.538406 
	C194.604935,33.005688 194.307266,29.998051 194.009598,26.990414 
	C194.009598,26.990414 194.000824,26.999180 193.995453,27.004515 
z"/>
<path fill="#E2E2E2" opacity="1.000000" stroke="none" 
	d="
M134.035309,121.772095 
	C132.896347,121.891457 131.757370,122.010818 130.109467,122.183517 
	C130.109467,125.124870 130.109467,128.128052 129.527863,131.567429 
	C125.627762,132.005508 122.309242,132.007370 118.997269,131.542114 
	C118.999443,126.380219 118.995079,121.685478 119.457840,116.997276 
	C124.619492,117.007980 129.314011,117.012146 134.008545,117.016312 
	C134.008545,117.016304 134.001221,116.998772 133.995331,117.393951 
	C134.004715,119.116791 134.020020,120.444443 134.035309,121.772095 
z"/>
<path fill="#FFFFFF" opacity="1.000000" stroke="none" 
	d="
M130.752350,86.649277 
	C127.041061,86.967056 123.471527,86.984932 119.451645,87.002052 
	C119.001305,87.001305 119.010178,87.010178 119.006454,86.543045 
	C119.005211,81.380547 119.007690,76.685188 119.010178,71.989822 
	C119.010178,71.989822 119.001190,71.998802 118.995682,72.004288 
	C123.684181,72.009201 128.378189,72.008636 133.538849,72.020210 
	C134.004105,72.810387 134.002701,73.588417 134.003540,74.756042 
	C132.975021,75.856674 131.944244,76.567726 130.607056,77.645493 
	C130.465500,79.019547 130.630341,80.026886 130.795197,81.034225 
	C130.835739,81.768913 130.876266,82.503593 130.620041,83.621719 
	C130.081253,84.171043 129.839233,84.336937 129.597198,84.502823 
	C129.996536,84.679634 130.395859,84.856453 130.795197,85.033272 
	C130.828171,85.471970 130.861145,85.910667 130.752350,86.649277 
z"/>
<path fill="#FFFFFF" opacity="1.000000" stroke="none" 
	d="
M129.952393,162.009064 
	C129.966629,166.692947 129.980865,171.376816 129.518768,176.531723 
	C125.691750,176.998627 122.341087,176.994507 118.990417,176.990402 
	C118.990417,176.990402 119.000275,177.000229 119.001465,176.537979 
	C118.999207,171.378677 118.995766,166.681610 119.449951,161.986618 
	C123.255859,161.995483 126.604126,162.002274 129.952393,162.009064 
z"/>
<path fill="#FFFFFF" opacity="1.000000" stroke="none" 
	d="
M118.990730,132.009247 
	C122.309242,132.007370 125.627762,132.005508 129.394196,132.015442 
	C129.893127,136.705093 129.944122,141.382935 129.518875,146.531708 
	C125.692513,147.006927 122.342384,147.011215 118.995102,146.547699 
	C119.002022,141.383209 119.006096,136.686508 119.005737,131.994232 
	C119.001305,131.998672 118.990730,132.009262 118.990730,132.009247 
z"/>
<path fill="#E2E2E2" opacity="1.000000" stroke="none" 
	d="
M118.992264,147.015488 
	C122.342384,147.011215 125.692513,147.006927 129.497498,146.996735 
	C130.037643,151.692673 130.122925,156.394501 130.080292,161.552704 
	C126.604126,162.002274 123.255859,161.995483 119.454239,161.995468 
	C119.000877,162.002258 119.016304,162.008545 119.013412,161.541504 
	C119.012451,156.380127 119.014374,151.685791 119.008476,146.994659 
	C119.000648,146.997849 118.992264,147.015488 118.992264,147.015488 
z"/>
<path fill="#E2E2E2" opacity="1.000000" stroke="none" 
	d="
M118.997025,177.455139 
	C122.341087,176.994507 125.691750,176.998627 129.497391,176.996796 
	C130.036163,178.129257 130.175690,179.266724 130.195084,180.406250 
	C130.377365,191.118240 130.371445,191.118347 119.421173,190.963196 
	C118.986656,186.559418 118.995148,182.239655 118.997025,177.455139 
z"/>
<path fill="#FFFFFF" opacity="1.000000" stroke="none" 
	d="
M134.452499,102.005432 
	C133.995529,99.694466 134.007370,97.380379 134.026413,94.635559 
	C139.108170,94.204811 144.182724,94.204811 150.403656,94.204811 
	C150.403656,99.849884 150.403656,105.006760 150.305573,110.630074 
	C149.809998,110.255363 148.949173,109.327499 149.087814,108.586685 
	C150.259857,102.324356 146.873444,101.391373 141.815750,101.957123 
	C139.544342,102.211205 137.221054,102.001556 134.452499,102.005432 
z"/>
<path fill="#FFFFFF" opacity="1.000000" stroke="none" 
	d="
M104.009789,86.990150 
	C102.653297,86.995667 101.296799,87.001183 99.533691,86.993683 
	C99.134537,82.162209 99.142014,77.343735 99.803680,72.198883 
	C101.641777,71.918190 102.825684,71.963890 104.009583,72.009590 
	C104.009583,72.009590 103.999748,71.999748 103.998550,72.462013 
	C103.994835,77.619576 103.992332,82.314880 103.994362,87.005630 
	C103.998901,87.001091 104.009789,86.990150 104.009789,86.990150 
z"/>
<path fill="#FFFFFF" opacity="1.000000" stroke="none" 
	d="
M99.234451,176.966507 
	C99.194687,172.295975 99.154930,167.625443 99.572540,162.489807 
	C101.356537,162.013168 102.683159,162.001663 104.006172,162.457336 
	C103.998314,167.619751 103.994064,172.314987 103.989822,177.010208 
	C103.989822,177.010208 104.000000,177.000000 103.606606,176.998581 
	C101.886955,176.986954 100.560707,176.976730 99.234451,176.966507 
z"/>
<path fill="#E6E6E6" opacity="1.000000" stroke="none" 
	d="
M104.009789,161.990143 
	C102.683159,162.001663 101.356537,162.013168 99.632179,162.029419 
	C99.176735,157.319717 99.119019,152.605286 99.545609,147.433594 
	C101.356537,146.987488 102.683151,146.998657 104.004288,147.004303 
	C103.998802,146.998795 103.989822,146.989792 103.993546,147.456924 
	C103.994781,152.619446 103.992302,157.314819 103.994354,162.005646 
	C103.998901,162.001099 104.009789,161.990143 104.009789,161.990143 
z"/>
<path fill="#FFFFFF" opacity="1.000000" stroke="none" 
	d="
M104.009766,147.009827 
	C102.683151,146.998657 101.356537,146.987488 99.632187,146.972488 
	C99.194672,142.296417 99.154900,137.624191 99.174789,132.491318 
	C100.560799,132.021698 101.887146,132.012711 103.606148,132.001266 
	C103.998802,131.998795 103.989822,131.989792 103.993546,132.456924 
	C104.001434,137.619324 104.005600,142.314575 104.009766,147.009827 
z"/>
<path fill="#E6E6E6" opacity="1.000000" stroke="none" 
	d="
M99.148438,177.401306 
	C100.560707,176.976730 101.886955,176.986954 103.611694,176.993469 
	C104.009796,181.302322 104.009415,185.614838 104.017090,190.381348 
	C99.285156,191.764664 97.635674,190.127975 98.857117,185.252396 
	C99.443893,182.910156 99.025574,180.316132 99.148438,177.401306 
z"/>
<path fill="#E2E2E2" opacity="1.000000" stroke="none" 
	d="
M119.003395,56.495907 
	C115.107841,56.712318 111.205147,56.498260 107.063080,55.913628 
	C110.637375,53.406219 114.451050,51.269386 118.634293,49.132332 
	C119.001328,51.443214 118.998795,53.754322 119.003395,56.495907 
z"/>
<path fill="#FFFFFF" opacity="1.000000" stroke="none" 
	d="
M134.453461,121.824219 
	C134.020020,120.444443 134.004715,119.116791 133.986557,117.390297 
	C138.931778,116.636024 143.879852,116.280602 149.052551,116.155663 
	C149.137329,117.695854 148.997528,119.005554 148.838058,120.499466 
	C144.164627,120.960197 139.518112,121.418266 134.453461,121.824219 
z"/>
<path fill="#FBFBFB" opacity="1.000000" stroke="none" 
	d="
M28.994217,42.453835 
	C31.771706,42.086090 34.548748,42.187004 37.618973,42.551655 
	C35.170696,46.579197 32.429245,50.342999 29.393562,54.318047 
	C29.064142,50.660358 29.028955,46.791428 28.994217,42.453835 
z"/>
<path fill="#E2E2E2" opacity="1.000000" stroke="none" 
	d="
M44.452492,207.002991 
	C44.254059,204.422516 44.517700,201.835419 45.151592,199.025116 
	C49.281437,201.317307 53.041027,203.832703 56.797901,206.692902 
	C52.834980,207.023926 48.874771,207.010162 44.452492,207.002991 
z"/>
<path fill="#E2E2E2" opacity="1.000000" stroke="none" 
	d="
M193.542801,26.997055 
	C194.307266,29.998051 194.604935,33.005688 194.968597,36.404251 
	C191.643021,33.824657 188.251465,30.854137 184.695587,27.560438 
	C187.379517,27.159407 190.227753,27.081551 193.542801,26.997055 
z"/>
<path fill="#FFFFFF" opacity="1.000000" stroke="none" 
	d="
M47.037243,33.804344 
	C45.837376,33.709843 44.229317,33.558300 44.150543,33.127270 
	C43.837482,31.414314 44.001812,29.614111 43.986496,27.418842 
	C47.535206,27.210415 51.086712,27.429375 54.922943,27.977497 
	C52.582394,30.077394 49.957119,31.848127 47.037243,33.804344 
z"/>
<path fill="#E2E2E2" opacity="1.000000" stroke="none" 
	d="
M37.151749,190.152435 
	C34.763264,190.980713 32.324905,191.488556 29.438480,192.002991 
	C29.447128,189.001343 29.903841,185.993103 30.830074,182.848328 
	C33.233685,185.085205 35.167778,187.458618 37.151749,190.152435 
z"/>
<path fill="#FFFFFF" opacity="1.000000" stroke="none" 
	d="
M209.006531,191.563049 
	C206.598694,192.007675 204.187195,192.005142 201.323059,191.982727 
	C202.661194,189.062363 204.451965,186.161880 206.557404,183.103348 
	C211.128250,184.744125 208.089767,188.445267 209.006531,191.563049 
z"/>
<path fill="#E2E2E2" opacity="1.000000" stroke="none" 
	d="
M104.002998,71.553574 
	C102.825684,71.963890 101.641777,71.918190 100.015457,71.830185 
	C100.396599,68.656860 101.220154,65.525841 102.267319,62.135574 
	C102.992760,64.950066 103.494591,68.023804 104.002998,71.553574 
z"/>
<path fill="#E2E2E2" opacity="1.000000" stroke="none" 
	d="
M130.889130,80.656296 
	C130.630341,80.026886 130.465500,79.019547 130.547913,77.988777 
	C130.857819,78.736351 130.920456,79.507362 130.889130,80.656296 
z"/>
<path fill="#E2E2E2" opacity="1.000000" stroke="none" 
	d="
M130.876450,84.766525 
	C130.395859,84.856453 129.996536,84.679634 129.597198,84.502823 
	C129.839233,84.336937 130.081253,84.171043 130.559235,83.985733 
	C130.849365,84.144135 130.903534,84.321960 130.876450,84.766525 
z"/>
<path fill="#FFFFFF" opacity="1.000000" stroke="none" 
	d="
M104.009789,116.990150 
	C100.535805,116.993324 97.061813,117.000168 93.587830,116.996986 
	C92.761177,116.996223 91.709053,117.285660 91.143608,116.891808 
	C86.644722,113.758141 89.873383,109.119408 89.184113,105.221985 
	C89.030479,104.353294 91.015327,102.289406 92.172783,102.157753 
	C95.765907,101.749077 99.434654,102.005280 103.536430,102.001152 
	C103.998802,101.998810 103.989822,101.989822 103.993584,102.457047 
	C103.994835,107.619576 103.992332,112.314880 103.994362,117.005630 
	C103.998901,117.001091 104.009789,116.990150 104.009789,116.990150 
z"/>
<path fill="#FFFFFF" opacity="1.000000" stroke="none" 
	d="
M118.996017,86.996017 
	C118.994797,91.685783 118.998863,96.380844 119.002167,101.537247 
	C119.001404,101.998596 119.010178,101.989822 118.543045,101.993546 
	C113.380547,101.994789 108.685188,101.992302 103.989822,101.989822 
	C103.989822,101.989822 103.998802,101.998810 104.004280,102.004318 
	C104.007362,97.314728 104.004959,92.619637 104.006172,87.457344 
	C104.009789,86.990150 103.998901,87.001091 104.461594,87.001877 
	C109.619576,87.005165 114.314880,87.007668 119.010178,87.010178 
	C119.010178,87.010178 119.001305,87.001305 118.996017,86.996017 
z"/>
<path fill="#FFFFFF" opacity="1.000000" stroke="none" 
	d="
M118.990723,116.990730 
	C118.995079,121.685478 118.999443,126.380219 118.997269,131.542114 
	C118.990730,132.009262 119.001305,131.998672 118.538513,131.998001 
	C113.380424,131.994812 108.685120,131.992310 103.989822,131.989792 
	C103.989822,131.989792 103.998802,131.998795 104.004288,132.004318 
	C104.007362,127.314743 104.004967,122.619637 104.006180,117.457344 
	C104.009789,116.990150 103.998901,117.001091 104.461594,117.001869 
	C109.619576,117.005157 114.314880,117.007668 119.005737,117.005737 
	C119.001305,117.001305 118.990723,116.990730 118.990723,116.990730 
z"/>
<path fill="#FFFFFF" opacity="1.000000" stroke="none" 
	d="
M134.005463,116.548584 
	C129.314011,117.012146 124.619492,117.007980 119.457840,116.997276 
	C118.990723,116.990730 119.001305,117.001305 119.001984,116.538513 
	C119.005157,111.380424 119.007668,106.685120 119.010178,101.989822 
	C119.010178,101.989822 119.001404,101.998596 118.996078,102.003922 
	C123.685318,102.002647 128.379883,101.996056 133.541504,101.986580 
	C134.006485,106.682747 134.004425,111.381798 134.005463,116.548584 
z"/>
<path fill="#E6E6E6" opacity="1.000000" stroke="none" 
	d="
M119.006454,86.543045 
	C114.314880,87.007668 109.619576,87.005165 104.457047,87.006416 
	C103.992332,82.314880 103.994835,77.619576 103.993584,72.457047 
	C108.685120,71.992332 113.380424,71.994843 118.542953,71.993584 
	C119.007690,76.685188 119.005211,81.380547 119.006454,86.543045 
z"/>
<path fill="#E6E6E6" opacity="1.000000" stroke="none" 
	d="
M104.456955,177.006500 
	C103.994064,172.314987 103.998314,167.619751 104.006172,162.457336 
	C104.009789,161.990143 103.998901,162.001099 104.461601,162.001877 
	C109.621635,162.004623 114.318970,162.006577 119.016304,162.008545 
	C119.016304,162.008545 119.000877,162.002258 118.996597,161.993408 
	C118.995766,166.681610 118.999207,171.378677 119.006416,176.542969 
	C114.314812,177.007736 109.619453,177.005249 104.456955,177.006500 
z"/>
<path fill="#E6E6E6" opacity="1.000000" stroke="none" 
	d="
M103.993546,132.456924 
	C108.685120,131.992310 113.380424,131.994812 118.542946,131.993561 
	C119.006096,136.686508 119.002022,141.383209 118.995102,146.547699 
	C118.992264,147.015488 119.000648,146.997849 118.540619,146.997787 
	C113.383659,146.995071 108.686745,146.992432 103.989822,146.989792 
	C103.989822,146.989792 103.998802,146.998795 104.004288,147.004318 
	C104.005600,142.314575 104.001434,137.619324 103.993546,132.456924 
z"/>
<path fill="#FFFFFF" opacity="1.000000" stroke="none" 
	d="
M103.993546,147.456924 
	C108.686745,146.992432 113.383659,146.995071 118.548447,146.994598 
	C119.014374,151.685791 119.012451,156.380127 119.013412,161.541504 
	C114.318970,162.006577 109.621635,162.004623 104.457062,162.006439 
	C103.992302,157.314819 103.994781,152.619446 103.993546,147.456924 
z"/>
<path fill="#E6E6E6" opacity="1.000000" stroke="none" 
	d="
M118.543045,101.993546 
	C119.007668,106.685120 119.005157,111.380424 119.006416,116.542946 
	C114.314880,117.007668 109.619576,117.005157 104.457047,117.006409 
	C103.992332,112.314880 103.994835,107.619576 103.993584,102.457047 
	C108.685188,101.992302 113.380547,101.994789 118.543045,101.993546 
z"/>
</svg>